<mxfile host="Electron" modified="2023-08-10T09:11:31.757Z" agent="Mozilla/5.0 (Macintosh; Intel Mac OS X 10_15_7) AppleWebKit/537.36 (KHTML, like Gecko) draw.io/21.6.5 Chrome/114.0.5735.243 Electron/25.3.1 Safari/537.36" etag="eXIHkiqRklcmiKGqIMuj" version="21.6.5" type="device">
  <diagram name="Page-1" id="py-MvKl3riDY_G-JkDAn">
    <mxGraphModel dx="1120" dy="1659" grid="1" gridSize="10" guides="1" tooltips="1" connect="1" arrows="1" fold="1" page="1" pageScale="1" pageWidth="1169" pageHeight="827" math="0" shadow="0">
      <root>
        <mxCell id="0" />
        <mxCell id="1" parent="0" />
        <mxCell id="4pgbnnCEekSiCqALWcIx-1" style="edgeStyle=orthogonalEdgeStyle;rounded=0;orthogonalLoop=1;jettySize=auto;html=1;fillColor=#f8cecc;strokeColor=#b85450;strokeWidth=3;startArrow=none;startFill=0;curved=1;" parent="1" source="Ig7GfmeTVwYkc1D9pHod-2" target="Ig7GfmeTVwYkc1D9pHod-5" edge="1">
          <mxGeometry relative="1" as="geometry">
            <Array as="points">
              <mxPoint x="880" y="680" />
              <mxPoint x="880" y="680" />
            </Array>
          </mxGeometry>
        </mxCell>
        <mxCell id="2YGMKilIXMSU9Y2CLLJV-1" style="edgeStyle=orthogonalEdgeStyle;rounded=0;orthogonalLoop=1;jettySize=auto;html=1;fillColor=#f8cecc;strokeColor=#b85450;startArrow=classic;startFill=1;endArrow=none;endFill=0;strokeWidth=4;" parent="1" edge="1">
          <mxGeometry relative="1" as="geometry">
            <mxPoint x="200" y="678" as="targetPoint" />
            <mxPoint x="602.0000083044988" y="678.1388235294118" as="sourcePoint" />
            <Array as="points">
              <mxPoint x="410" y="678.08" />
              <mxPoint x="230" y="679.08" />
            </Array>
          </mxGeometry>
        </mxCell>
        <mxCell id="M5NUYjAvVnbwDxoGHE9m-10" style="edgeStyle=orthogonalEdgeStyle;rounded=0;orthogonalLoop=1;jettySize=auto;html=1;fillColor=#d5e8d4;strokeColor=#82b366;strokeWidth=3;" parent="1" edge="1">
          <mxGeometry relative="1" as="geometry">
            <mxPoint x="200" y="640" as="targetPoint" />
            <mxPoint x="602.0000262463202" y="640.0376470588234" as="sourcePoint" />
          </mxGeometry>
        </mxCell>
        <mxCell id="Ig7GfmeTVwYkc1D9pHod-2" value="&lt;font style=&quot;font-size: 20px;&quot;&gt;Orchestrator&lt;/font&gt;" style="ellipse;whiteSpace=wrap;html=1;fontSize=18;strokeColor=#000000;strokeWidth=1;" parent="1" vertex="1">
          <mxGeometry x="602" y="618.08" width="150" height="90" as="geometry" />
        </mxCell>
        <mxCell id="M5NUYjAvVnbwDxoGHE9m-8" style="edgeStyle=orthogonalEdgeStyle;rounded=0;orthogonalLoop=1;jettySize=auto;html=1;fillColor=#dae8fc;strokeColor=#6c8ebf;strokeWidth=3;" parent="1" source="Ig7GfmeTVwYkc1D9pHod-5" target="Ig7GfmeTVwYkc1D9pHod-2" edge="1">
          <mxGeometry relative="1" as="geometry">
            <Array as="points">
              <mxPoint x="890" y="650" />
              <mxPoint x="890" y="650" />
            </Array>
          </mxGeometry>
        </mxCell>
        <mxCell id="Ig7GfmeTVwYkc1D9pHod-5" value="&lt;font style=&quot;font-size: 18px;&quot;&gt;Policy enforcer&lt;/font&gt;" style="ellipse;whiteSpace=wrap;html=1;fontSize=18;" parent="1" vertex="1">
          <mxGeometry x="1019" y="623.08" width="120" height="80" as="geometry" />
        </mxCell>
        <mxCell id="4pgbnnCEekSiCqALWcIx-4" value="" style="group;fillColor=none;strokeColor=none;" parent="1" vertex="1" connectable="0">
          <mxGeometry x="587.88" y="-198.92000000000002" width="960.01" height="353.54" as="geometry" />
        </mxCell>
        <mxCell id="4pgbnnCEekSiCqALWcIx-7" value="" style="rounded=1;whiteSpace=wrap;html=1;fontSize=18;" parent="4pgbnnCEekSiCqALWcIx-4" vertex="1">
          <mxGeometry x="-12.87" y="-134" width="582.87" height="532.46" as="geometry" />
        </mxCell>
        <mxCell id="4pgbnnCEekSiCqALWcIx-12" value="&lt;font style=&quot;font-size: 18px;&quot;&gt;Distributed agent&lt;br&gt;&lt;/font&gt;" style="ellipse;whiteSpace=wrap;html=1;fontSize=18;strokeColor=default;strokeWidth=1;" parent="4pgbnnCEekSiCqALWcIx-4" vertex="1">
          <mxGeometry x="11.97722222222222" y="269.9566666666667" width="153.06944444444446" height="101.83261407407409" as="geometry" />
        </mxCell>
        <mxCell id="XfPM6s1SKDBaheF1JBiA-16" value="" style="group" parent="4pgbnnCEekSiCqALWcIx-4" vertex="1" connectable="0">
          <mxGeometry x="11.980000000000004" y="-85.07999999999998" width="490" height="240" as="geometry" />
        </mxCell>
        <mxCell id="XfPM6s1SKDBaheF1JBiA-1" value="" style="rounded=1;whiteSpace=wrap;html=1;dashed=1;dashPattern=12 12;" parent="XfPM6s1SKDBaheF1JBiA-16" vertex="1">
          <mxGeometry width="490" height="240" as="geometry" />
        </mxCell>
        <mxCell id="XfPM6s1SKDBaheF1JBiA-3" value="&lt;b&gt;&lt;font style=&quot;font-size: 16px;&quot;&gt;Job&lt;/font&gt;&lt;/b&gt;" style="sketch=0;html=1;dashed=0;whitespace=wrap;fillColor=#2875E2;strokeColor=#ffffff;points=[[0.005,0.63,0],[0.1,0.2,0],[0.9,0.2,0],[0.5,0,0],[0.995,0.63,0],[0.72,0.99,0],[0.5,1,0],[0.28,0.99,0]];verticalLabelPosition=bottom;align=center;verticalAlign=top;shape=mxgraph.kubernetes.icon;prIcon=job" parent="XfPM6s1SKDBaheF1JBiA-16" vertex="1">
          <mxGeometry x="10" y="6" width="50" height="48" as="geometry" />
        </mxCell>
        <mxCell id="XfPM6s1SKDBaheF1JBiA-6" value="Service 1" style="rounded=0;whiteSpace=wrap;html=1;" parent="XfPM6s1SKDBaheF1JBiA-16" vertex="1">
          <mxGeometry x="10" y="86" width="120" height="60" as="geometry" />
        </mxCell>
        <mxCell id="XfPM6s1SKDBaheF1JBiA-9" value="Service 2" style="rounded=0;whiteSpace=wrap;html=1;" parent="XfPM6s1SKDBaheF1JBiA-16" vertex="1">
          <mxGeometry x="185" y="86" width="120" height="60" as="geometry" />
        </mxCell>
        <mxCell id="XfPM6s1SKDBaheF1JBiA-4" style="edgeStyle=orthogonalEdgeStyle;rounded=0;orthogonalLoop=1;jettySize=auto;html=1;entryX=0;entryY=0.5;entryDx=0;entryDy=0;fillColor=#ffe6cc;strokeColor=#d79b00;strokeWidth=2;" parent="XfPM6s1SKDBaheF1JBiA-16" source="XfPM6s1SKDBaheF1JBiA-6" target="XfPM6s1SKDBaheF1JBiA-9" edge="1">
          <mxGeometry relative="1" as="geometry" />
        </mxCell>
        <mxCell id="XfPM6s1SKDBaheF1JBiA-5" value="Data" style="edgeLabel;html=1;align=center;verticalAlign=middle;resizable=0;points=[];fontSize=13;" parent="XfPM6s1SKDBaheF1JBiA-4" vertex="1" connectable="0">
          <mxGeometry x="0.0263" y="-1" relative="1" as="geometry">
            <mxPoint x="-4" y="7" as="offset" />
          </mxGeometry>
        </mxCell>
        <mxCell id="XfPM6s1SKDBaheF1JBiA-10" value="Service 3" style="rounded=0;whiteSpace=wrap;html=1;" parent="XfPM6s1SKDBaheF1JBiA-16" vertex="1">
          <mxGeometry x="360" y="86" width="120" height="60" as="geometry" />
        </mxCell>
        <mxCell id="XfPM6s1SKDBaheF1JBiA-7" style="edgeStyle=orthogonalEdgeStyle;rounded=0;orthogonalLoop=1;jettySize=auto;html=1;entryX=0;entryY=0.5;entryDx=0;entryDy=0;fillColor=#ffe6cc;strokeColor=#d79b00;strokeWidth=2;" parent="XfPM6s1SKDBaheF1JBiA-16" source="XfPM6s1SKDBaheF1JBiA-9" target="XfPM6s1SKDBaheF1JBiA-10" edge="1">
          <mxGeometry relative="1" as="geometry" />
        </mxCell>
        <mxCell id="XfPM6s1SKDBaheF1JBiA-8" value="Data" style="edgeLabel;html=1;align=center;verticalAlign=middle;resizable=0;points=[];fontSize=13;" parent="XfPM6s1SKDBaheF1JBiA-7" vertex="1" connectable="0">
          <mxGeometry x="0.0465" y="-1" relative="1" as="geometry">
            <mxPoint x="-5" y="7" as="offset" />
          </mxGeometry>
        </mxCell>
        <mxCell id="XfPM6s1SKDBaheF1JBiA-11" style="edgeStyle=orthogonalEdgeStyle;rounded=0;orthogonalLoop=1;jettySize=auto;html=1;fillColor=#ffe6cc;strokeColor=#d79b00;strokeWidth=2;" parent="XfPM6s1SKDBaheF1JBiA-16" source="XfPM6s1SKDBaheF1JBiA-13" target="XfPM6s1SKDBaheF1JBiA-6" edge="1">
          <mxGeometry relative="1" as="geometry" />
        </mxCell>
        <mxCell id="XfPM6s1SKDBaheF1JBiA-12" value="Request" style="edgeLabel;html=1;align=center;verticalAlign=middle;resizable=0;points=[];fontSize=13;" parent="XfPM6s1SKDBaheF1JBiA-11" vertex="1" connectable="0">
          <mxGeometry x="-0.2976" relative="1" as="geometry">
            <mxPoint x="-11" y="11" as="offset" />
          </mxGeometry>
        </mxCell>
        <mxCell id="XfPM6s1SKDBaheF1JBiA-13" value="Sidecar" style="rounded=0;whiteSpace=wrap;html=1;" parent="XfPM6s1SKDBaheF1JBiA-16" vertex="1">
          <mxGeometry x="185" y="169" width="120" height="60" as="geometry" />
        </mxCell>
        <mxCell id="XfPM6s1SKDBaheF1JBiA-14" style="edgeStyle=orthogonalEdgeStyle;rounded=0;orthogonalLoop=1;jettySize=auto;html=1;entryX=1;entryY=0.5;entryDx=0;entryDy=0;fillColor=#ffe6cc;strokeColor=#d79b00;strokeWidth=2;" parent="XfPM6s1SKDBaheF1JBiA-16" source="XfPM6s1SKDBaheF1JBiA-10" target="XfPM6s1SKDBaheF1JBiA-13" edge="1">
          <mxGeometry relative="1" as="geometry">
            <Array as="points">
              <mxPoint x="435" y="199" />
            </Array>
          </mxGeometry>
        </mxCell>
        <mxCell id="XfPM6s1SKDBaheF1JBiA-15" value="Result" style="edgeLabel;html=1;align=center;verticalAlign=middle;resizable=0;points=[];fontSize=13;" parent="XfPM6s1SKDBaheF1JBiA-14" vertex="1" connectable="0">
          <mxGeometry x="0.3552" y="-1" relative="1" as="geometry">
            <mxPoint y="12" as="offset" />
          </mxGeometry>
        </mxCell>
        <mxCell id="XfPM6s1SKDBaheF1JBiA-20" style="edgeStyle=orthogonalEdgeStyle;rounded=0;orthogonalLoop=1;jettySize=auto;html=1;fillColor=#ffe6cc;strokeColor=#d79b00;strokeWidth=3;startArrow=classic;startFill=1;" parent="4pgbnnCEekSiCqALWcIx-4" source="4pgbnnCEekSiCqALWcIx-12" target="XfPM6s1SKDBaheF1JBiA-13" edge="1">
          <mxGeometry relative="1" as="geometry" />
        </mxCell>
        <mxCell id="XfPM6s1SKDBaheF1JBiA-21" value="&lt;div style=&quot;font-size: 16px;&quot;&gt;&lt;div&gt;message MicroserviceCommunication {&lt;/div&gt;&lt;div&gt;&amp;nbsp; string type;&lt;/div&gt;&lt;div&gt;&amp;nbsp; string request_type;&lt;/div&gt;&lt;div&gt;&amp;nbsp; google.protobuf.Struct data;&lt;/div&gt;&lt;div&gt;&amp;nbsp; map&amp;lt;string, string&amp;gt; metadata;&lt;/div&gt;&lt;div&gt;&amp;nbsp; google.protobuf.Any original_request;&lt;/div&gt;&lt;div&gt;&amp;nbsp; RequestMetadata request_metadata;&lt;/div&gt;&lt;div&gt;&amp;nbsp; map&amp;lt;string, bytes&amp;gt; traces;&lt;/div&gt;&lt;div&gt;}&lt;/div&gt;&lt;/div&gt;" style="text;html=1;strokeColor=none;fillColor=none;align=left;verticalAlign=middle;whiteSpace=wrap;rounded=0;fontSize=16;" parent="4pgbnnCEekSiCqALWcIx-4" vertex="1">
          <mxGeometry x="263.12" y="194.92" width="317.88" height="153.23" as="geometry" />
        </mxCell>
        <mxCell id="XfPM6s1SKDBaheF1JBiA-22" value="&lt;span style=&quot;font-size: 16px;&quot;&gt;&lt;b&gt;5&lt;/b&gt;&lt;/span&gt;" style="ellipse;whiteSpace=wrap;html=1;aspect=fixed;strokeWidth=2;fontFamily=Tahoma;spacingBottom=4;spacingRight=2;strokeColor=#d79b00;fillColor=#ffe6cc;" parent="4pgbnnCEekSiCqALWcIx-4" vertex="1">
          <mxGeometry x="192.12" y="254.92000000000002" width="55" height="55" as="geometry" />
        </mxCell>
        <mxCell id="4pgbnnCEekSiCqALWcIx-23" style="edgeStyle=orthogonalEdgeStyle;rounded=0;orthogonalLoop=1;jettySize=auto;html=1;entryX=0.5;entryY=1;entryDx=0;entryDy=0;fillColor=#d5e8d4;strokeColor=#82b366;strokeWidth=3;" parent="1" source="Ig7GfmeTVwYkc1D9pHod-2" target="4pgbnnCEekSiCqALWcIx-12" edge="1">
          <mxGeometry relative="1" as="geometry" />
        </mxCell>
        <mxCell id="4pgbnnCEekSiCqALWcIx-30" value="&lt;b&gt;&lt;font style=&quot;font-size: 16px;&quot;&gt;1&lt;/font&gt;&lt;/b&gt;" style="ellipse;whiteSpace=wrap;html=1;aspect=fixed;strokeWidth=2;fontFamily=Tahoma;spacingBottom=4;spacingRight=2;strokeColor=#b85450;fillColor=#f8cecc;" parent="1" vertex="1">
          <mxGeometry x="752" y="690" width="40" height="40" as="geometry" />
        </mxCell>
        <mxCell id="4pgbnnCEekSiCqALWcIx-31" value="&lt;b&gt;&lt;font style=&quot;font-size: 16px;&quot;&gt;2&lt;/font&gt;&lt;/b&gt;" style="ellipse;whiteSpace=wrap;html=1;aspect=fixed;strokeWidth=2;fontFamily=Tahoma;spacingBottom=4;spacingRight=2;strokeColor=#6c8ebf;fillColor=#dae8fc;" parent="1" vertex="1">
          <mxGeometry x="769" y="600" width="40" height="40" as="geometry" />
        </mxCell>
        <mxCell id="2YGMKilIXMSU9Y2CLLJV-2" value="&lt;b&gt;&lt;font style=&quot;font-size: 16px;&quot;&gt;1&lt;/font&gt;&lt;/b&gt;" style="ellipse;whiteSpace=wrap;html=1;aspect=fixed;strokeWidth=2;fontFamily=Tahoma;spacingBottom=4;spacingRight=2;strokeColor=#b85450;fillColor=#f8cecc;" parent="1" vertex="1">
          <mxGeometry x="230" y="690" width="40" height="40" as="geometry" />
        </mxCell>
        <mxCell id="XfPM6s1SKDBaheF1JBiA-17" style="edgeStyle=orthogonalEdgeStyle;rounded=0;orthogonalLoop=1;jettySize=auto;html=1;entryX=0;entryY=1;entryDx=0;entryDy=0;fillColor=#e1d5e7;strokeColor=#9673a6;strokeWidth=3;" parent="1" source="M5NUYjAvVnbwDxoGHE9m-1" target="4pgbnnCEekSiCqALWcIx-12" edge="1">
          <mxGeometry relative="1" as="geometry">
            <Array as="points">
              <mxPoint x="170" y="158" />
            </Array>
          </mxGeometry>
        </mxCell>
        <mxCell id="M5NUYjAvVnbwDxoGHE9m-1" value="&lt;font style=&quot;font-size: 16px;&quot;&gt;&lt;b&gt;Data analyst&lt;/b&gt;&lt;/font&gt;" style="sketch=0;outlineConnect=0;fontColor=#232F3E;gradientColor=none;fillColor=#232F3D;strokeColor=none;dashed=0;verticalLabelPosition=bottom;verticalAlign=top;align=center;html=1;fontSize=12;fontStyle=0;aspect=fixed;pointerEvents=1;shape=mxgraph.aws4.user;" parent="1" vertex="1">
          <mxGeometry x="110" y="618.08" width="78" height="78" as="geometry" />
        </mxCell>
        <mxCell id="M5NUYjAvVnbwDxoGHE9m-7" value="message RequestApproval {&#xa;  string type;&#xa;  User user;&#xa;  repeated string data_providers&#xa;}" style="text;whiteSpace=wrap;fontStyle=0;fontSize=16;" parent="1" vertex="1">
          <mxGeometry x="280" y="689.9999999999999" width="230" height="110" as="geometry" />
        </mxCell>
        <mxCell id="M5NUYjAvVnbwDxoGHE9m-9" value="message ValidationResponse {&#xa;  string type;&#xa;  string request_type;&#xa;  map&lt;string, DataProvider&gt; valid_dataproviders;&#xa;  repeated string invalid_dataproviders;&#xa;  Auth auth;&#xa;  User user;&#xa;  bool request_approved;&#xa;}" style="text;whiteSpace=wrap;fontSize=16;" parent="1" vertex="1">
          <mxGeometry x="809" y="463.08000000000004" width="360" height="160" as="geometry" />
        </mxCell>
        <mxCell id="M5NUYjAvVnbwDxoGHE9m-11" value="&lt;b&gt;&lt;font style=&quot;font-size: 16px;&quot;&gt;3&lt;/font&gt;&lt;/b&gt;" style="ellipse;whiteSpace=wrap;html=1;aspect=fixed;strokeWidth=2;fontFamily=Tahoma;spacingBottom=4;spacingRight=2;strokeColor=#82b366;fillColor=#d5e8d4;" parent="1" vertex="1">
          <mxGeometry x="230" y="590" width="40" height="40" as="geometry" />
        </mxCell>
        <mxCell id="M5NUYjAvVnbwDxoGHE9m-12" value="&lt;div style=&quot;font-size: 16px;&quot;&gt;&lt;font style=&quot;font-size: 16px;&quot;&gt;message AcceptedDataRequest&amp;nbsp; {&lt;/font&gt;&lt;/div&gt;&lt;div style=&quot;font-size: 16px;&quot;&gt;&lt;font style=&quot;font-size: 16px;&quot;&gt;&amp;nbsp; string type;&lt;/font&gt;&lt;/div&gt;&lt;div style=&quot;font-size: 16px;&quot;&gt;&lt;font style=&quot;font-size: 16px;&quot;&gt;&amp;nbsp; User user;&lt;/font&gt;&lt;/div&gt;&lt;div style=&quot;font-size: 16px;&quot;&gt;&lt;font style=&quot;font-size: 16px;&quot;&gt;&amp;nbsp; Auth auth;&lt;/font&gt;&lt;/div&gt;&lt;div style=&quot;font-size: 16px;&quot;&gt;&lt;font style=&quot;font-size: 16px;&quot;&gt;&amp;nbsp; map&amp;lt;string, string&amp;gt; authorized_providers;&lt;br&gt;&amp;nbsp; string job_id;&lt;/font&gt;&lt;/div&gt;&lt;div style=&quot;font-size: 16px;&quot;&gt;&lt;span style=&quot;background-color: initial;&quot;&gt;}&lt;/span&gt;&lt;br&gt;&lt;/div&gt;" style="text;html=1;align=left;verticalAlign=middle;resizable=0;points=[];autosize=1;strokeColor=none;fillColor=none;" parent="1" vertex="1">
          <mxGeometry x="272" y="490" width="330" height="150" as="geometry" />
        </mxCell>
        <mxCell id="M5NUYjAvVnbwDxoGHE9m-13" value="&lt;div style=&quot;font-size: 16px;&quot;&gt;&lt;font style=&quot;font-size: 16px;&quot;&gt;&lt;br&gt;&lt;/font&gt;&lt;/div&gt;&lt;div style=&quot;font-size: 16px;&quot;&gt;&lt;font style=&quot;font-size: 16px;&quot;&gt;message CompositionRequest {&lt;/font&gt;&lt;/div&gt;&lt;div style=&quot;font-size: 16px;&quot;&gt;&lt;font style=&quot;font-size: 16px;&quot;&gt;&amp;nbsp; &amp;nbsp; string archetype_id;&lt;/font&gt;&lt;/div&gt;&lt;div style=&quot;font-size: 16px;&quot;&gt;&lt;font style=&quot;font-size: 16px;&quot;&gt;&amp;nbsp; &amp;nbsp; string request_type;&lt;/font&gt;&lt;/div&gt;&lt;div style=&quot;font-size: 16px;&quot;&gt;&lt;font style=&quot;font-size: 16px;&quot;&gt;&amp;nbsp; &amp;nbsp; string role;&lt;/font&gt;&lt;/div&gt;&lt;div style=&quot;font-size: 16px;&quot;&gt;&lt;font style=&quot;font-size: 16px;&quot;&gt;&amp;nbsp; &amp;nbsp; User user;&lt;/font&gt;&lt;/div&gt;&lt;div style=&quot;font-size: 16px;&quot;&gt;&lt;font style=&quot;font-size: 16px;&quot;&gt;&amp;nbsp; &amp;nbsp; repeated string data_providers;&lt;/font&gt;&lt;/div&gt;&lt;div style=&quot;font-size: 16px;&quot;&gt;&lt;font style=&quot;font-size: 16px;&quot;&gt;&amp;nbsp; &amp;nbsp; string destination_queue;&lt;/font&gt;&lt;/div&gt;&lt;div style=&quot;font-size: 16px;&quot;&gt;&lt;font style=&quot;font-size: 16px;&quot;&gt;&amp;nbsp; &amp;nbsp; string job_name;&lt;br&gt;&amp;nbsp; &amp;nbsp; string&amp;nbsp;&lt;/font&gt;local_job_name;&lt;/div&gt;&lt;div style=&quot;font-size: 16px;&quot;&gt;&lt;font style=&quot;font-size: 16px;&quot;&gt;}&lt;/font&gt;&lt;/div&gt;" style="text;html=1;align=left;verticalAlign=middle;resizable=0;points=[];autosize=1;strokeColor=none;fillColor=none;" parent="1" vertex="1">
          <mxGeometry x="740" y="205.62" width="260" height="220" as="geometry" />
        </mxCell>
        <mxCell id="M5NUYjAvVnbwDxoGHE9m-14" value="&lt;b&gt;&lt;font style=&quot;font-size: 16px;&quot;&gt;3&lt;/font&gt;&lt;/b&gt;" style="ellipse;whiteSpace=wrap;html=1;aspect=fixed;strokeWidth=2;fontFamily=Tahoma;spacingBottom=4;spacingRight=2;strokeColor=#82b366;fillColor=#d5e8d4;" parent="1" vertex="1">
          <mxGeometry x="680" y="223.5" width="55" height="55" as="geometry" />
        </mxCell>
        <mxCell id="XfPM6s1SKDBaheF1JBiA-18" value="&lt;span style=&quot;font-size: 16px;&quot;&gt;&lt;b&gt;4&lt;/b&gt;&lt;/span&gt;" style="ellipse;whiteSpace=wrap;html=1;aspect=fixed;strokeWidth=2;fontFamily=Tahoma;spacingBottom=4;spacingRight=2;strokeColor=#9673a6;fillColor=#e1d5e7;" parent="1" vertex="1">
          <mxGeometry x="175" y="166" width="55" height="55" as="geometry" />
        </mxCell>
        <mxCell id="XfPM6s1SKDBaheF1JBiA-19" value="message SqlDataRequest {&#xa;  string type;&#xa;  repeated string data_providers;&#xa;  string query;&#xa;  bool graph;&#xa;  string algorithm;&#xa;  map&lt;string, string&gt; algorithm_columns;&#xa;  User user;&#xa;  RequestMetadata request_metadata;&#xa;}" style="text;whiteSpace=wrap;fontSize=15;" parent="1" vertex="1">
          <mxGeometry x="240" y="166" width="350" height="170" as="geometry" />
        </mxCell>
        <mxCell id="XfPM6s1SKDBaheF1JBiA-23" style="edgeStyle=orthogonalEdgeStyle;rounded=0;orthogonalLoop=1;jettySize=auto;html=1;strokeWidth=3;fillColor=#f5f5f5;strokeColor=#666666;" parent="1" source="4pgbnnCEekSiCqALWcIx-12" edge="1">
          <mxGeometry relative="1" as="geometry">
            <mxPoint x="130" y="610" as="targetPoint" />
          </mxGeometry>
        </mxCell>
        <mxCell id="XfPM6s1SKDBaheF1JBiA-24" value="&lt;span style=&quot;font-size: 16px;&quot;&gt;&lt;b&gt;6&lt;/b&gt;&lt;/span&gt;" style="ellipse;whiteSpace=wrap;html=1;aspect=fixed;strokeWidth=2;fontFamily=Tahoma;spacingBottom=4;spacingRight=2;strokeColor=#666666;fillColor=#f5f5f5;fontColor=#333333;" parent="1" vertex="1">
          <mxGeometry x="500" y="58" width="55" height="55" as="geometry" />
        </mxCell>
        <mxCell id="XfPM6s1SKDBaheF1JBiA-25" value="Response { .. }" style="text;whiteSpace=wrap;fontSize=15;" parent="1" vertex="1">
          <mxGeometry x="390" y="70.5" width="120" height="30" as="geometry" />
        </mxCell>
        <mxCell id="4pgbnnCEekSiCqALWcIx-9" value="&lt;b style=&quot;font-size: 18px;&quot;&gt;Data Steward&lt;br&gt;&lt;/b&gt;" style="text;html=1;strokeColor=none;fillColor=none;align=center;verticalAlign=middle;whiteSpace=wrap;rounded=0;fontSize=18;" parent="1" vertex="1">
          <mxGeometry x="559.9967441860465" y="-332.92" width="256.38616279069765" height="45.61806451612903" as="geometry" />
        </mxCell>
      </root>
    </mxGraphModel>
  </diagram>
</mxfile>
